<svg width="281" height="209" viewBox="0 0 281 209" fill="none" xmlns="http://www.w3.org/2000/svg">
<path d="M237.5 176.25C246.475 176.25 253.75 183.525 253.75 192.5C253.75 201.475 246.475 208.75 237.5 208.75H221.5C212.525 208.75 205.25 201.475 205.25 192.5C205.25 183.525 212.525 176.25 221.5 176.25H237.5Z" stroke="#D0D0D0" stroke-width="0.5" fill="url(#pill-1-4h)" fill-opacity="0.3"/>
<path d="M217.324 196.5V189.228L215.884 189.588V188.868L217.66 188.1H218.344V196.5H217.324ZM220.102 193.38V192.528H224.854V193.38H220.102ZM230.434 196.5V194.7H226.174V193.92L230.254 188.1H231.43V193.812H232.678V194.7H231.43V196.5H230.434ZM227.29 193.812H230.482V189.216L227.29 193.812ZM237.047 196.5V187.86H238.055V191.472C238.255 191.112 238.535 190.828 238.895 190.62C239.263 190.412 239.663 190.308 240.095 190.308C240.559 190.308 240.963 190.404 241.307 190.596C241.651 190.78 241.915 191.064 242.099 191.448C242.283 191.832 242.375 192.316 242.375 192.9V196.5H241.379V193.008C241.379 192.4 241.251 191.944 240.995 191.64C240.739 191.328 240.367 191.172 239.879 191.172C239.535 191.172 239.223 191.256 238.943 191.424C238.671 191.592 238.455 191.832 238.295 192.144C238.135 192.456 238.055 192.84 238.055 193.296V196.5H237.047Z" fill="white"/>
<path d="M25.5 103.25C34.4746 103.25 41.75 110.525 41.75 119.5C41.75 128.475 34.4746 135.75 25.5 135.75H16.5C7.52537 135.75 0.25 128.475 0.25 119.5C0.25 110.525 7.52537 103.25 16.5 103.25H25.5Z" stroke="white" stroke-opacity="0.3" stroke-width="0.5"/>
<path d="M15.204 123.5V121.7H10.944V120.92L15.024 115.1H16.2V120.812H17.448V121.7H16.2V123.5H15.204ZM12.06 120.812H15.252V116.216L12.06 120.812ZM18.6291 123.5V114.86H19.6371V118.472C19.8371 118.112 20.1171 117.828 20.4771 117.62C20.8451 117.412 21.2451 117.308 21.6771 117.308C22.1411 117.308 22.5451 117.404 22.8891 117.596C23.2331 117.78 23.4971 118.064 23.6811 118.448C23.8651 118.832 23.9571 119.316 23.9571 119.9V123.5H22.9611V120.008C22.9611 119.4 22.8331 118.944 22.5771 118.64C22.3211 118.328 21.9491 118.172 21.4611 118.172C21.1171 118.172 20.8051 118.256 20.5251 118.424C20.2531 118.592 20.0371 118.832 19.8771 119.144C19.7171 119.456 19.6371 119.84 19.6371 120.296V123.5H18.6291ZM27.5354 122.636V117.404H28.4354V122.636H27.5354ZM25.2434 120.44V119.588H30.7274V120.44H25.2434Z" fill="white"/>
<rect x="173.25" y="0.25" width="45.5" height="32.5" rx="16.25" stroke="white" stroke-opacity="0.3" stroke-width="0.5"/>
<path d="M189.2 19.9H187.376L184.652 17.176L187.376 14.452H189.2L186.464 17.176L189.2 19.9ZM195.145 20.5V13.744L193.657 14.128V13.012L195.721 12.1H196.621V20.5H195.145ZM201.191 20.5V11.86H202.631V15.388C202.831 15.06 203.103 14.8 203.447 14.608C203.791 14.408 204.179 14.308 204.611 14.308C205.107 14.308 205.527 14.412 205.871 14.62C206.215 14.82 206.475 15.12 206.651 15.52C206.835 15.912 206.927 16.404 206.927 16.996V20.5H205.499V17.128C205.499 16.608 205.387 16.212 205.163 15.94C204.947 15.668 204.615 15.532 204.167 15.532C203.879 15.532 203.619 15.604 203.387 15.748C203.155 15.884 202.971 16.084 202.835 16.348C202.699 16.604 202.631 16.92 202.631 17.296V20.5H201.191Z" fill="white"/>
<path d="M223.325 115.5C224.526 115.5 225.503 116.474 225.473 117.675C225.135 131.166 221.663 144.405 215.319 156.339C208.634 168.914 198.964 179.655 187.159 187.62C175.353 195.585 161.773 200.53 147.61 202.022C134.169 203.437 120.593 201.7 107.956 196.962C106.832 196.54 106.294 195.27 106.744 194.156C107.193 193.042 108.46 192.507 109.585 192.927C121.561 197.4 134.422 199.036 147.155 197.696C160.609 196.279 173.511 191.581 184.726 184.014C195.941 176.447 205.127 166.243 211.478 154.297C217.488 142.992 220.785 130.454 221.121 117.675C221.153 116.474 222.124 115.5 223.325 115.5Z" fill="white" fill-opacity="0.2"/>
<path d="M97.3012 189.648C96.7178 190.698 95.392 191.079 94.3568 190.469C82.7274 183.622 72.8412 174.157 65.4908 162.814C57.7458 150.864 53.053 137.194 51.8244 123.006C50.5957 108.818 52.8688 94.545 58.4441 81.4405C63.7352 69.0037 71.8471 57.9801 82.1264 49.2353C83.0413 48.4569 84.4128 48.6039 85.168 49.538C85.9233 50.4721 85.7762 51.8395 84.8623 52.619C75.1362 60.9153 67.4593 71.3619 62.4469 83.1435C57.1504 95.5928 54.9909 109.152 56.1582 122.631C57.3254 136.109 61.7836 149.095 69.1413 160.449C76.1044 171.193 85.4629 180.165 96.4703 186.666C97.5047 187.276 97.8846 188.598 97.3012 189.648Z" fill="white" fill-opacity="0.2"/>
<g transform="rotate(106 138.5 115.5)">
<g filter="url(#arc-glow)">
<path d="M97.4561 43.7615C96.263 41.6762 96.9818 39.0081 99.1241 37.9207C110.497 32.1485 123.017 28.9389 135.799 28.5419C150.034 28.0999 164.159 31.1588 176.935 37.4503C189.711 43.7418 200.747 53.0734 209.075 64.6259C216.553 75.0004 221.642 86.8812 224 99.4149C224.444 101.776 222.768 103.972 220.387 104.298C218.007 104.624 215.826 102.955 215.368 100.596C213.212 89.4731 208.663 78.9324 202.017 69.7133C194.523 59.316 184.59 50.9176 173.091 45.2553C161.593 39.593 148.88 36.8399 136.069 37.2377C124.71 37.5905 113.582 40.411 103.45 45.4829C101.302 46.5583 98.6491 45.8467 97.4561 43.7615Z" fill="#FF8800"/>
</g>
<line x1="144.044" y1="98.1614" x2="172.161" y2="40.9563" stroke="#FF8800" stroke-opacity="0.5" stroke-width="2" stroke-linecap="round"/>
</g>
<g filter="url(#hub-glow)">
<circle cx="138.5" cy="115.5" r="18" fill="black" fill-opacity="0.2"/>
<circle cx="138.5" cy="115.5" r="17.5" stroke="#FF8800" stroke-opacity="0.5"/>
<text x="138.5" y="119.5" text-anchor="middle" fill="white" font-size="11" font-weight="500" font-family="DM Sans, sans-serif">1-4 h</text>
</g>
<defs>
<filter id="arc-glow" x="76.882" y="8.5" width="167.19" height="115.84" filterUnits="userSpaceOnUse" color-interpolation-filters="sRGB">
<feFlood flood-opacity="0" result="BackgroundImageFix"/>
<feColorMatrix in="SourceAlpha" type="matrix" values="0 0 0 0 0 0 0 0 0 0 0 0 0 0 0 0 0 0 127 0" result="hardAlpha"/>
<feOffset/>
<feGaussianBlur stdDeviation="10"/>
<feComposite in2="hardAlpha" operator="out"/>
<feColorMatrix type="matrix" values="0 0 0 0 1 0 0 0 0 0.533333 0 0 0 0 0 0 0 0 0.5 0"/>
<feBlend mode="normal" in2="BackgroundImageFix" result="effect1_dropShadow"/>
<feBlend mode="normal" in="SourceGraphic" in2="effect1_dropShadow" result="shape"/>
</filter>
<filter id="hub-glow" x="110.5" y="87.5" width="56" height="56" filterUnits="userSpaceOnUse" color-interpolation-filters="sRGB">
<feFlood flood-opacity="0" result="BackgroundImageFix"/>
<feColorMatrix in="SourceAlpha" type="matrix" values="0 0 0 0 0 0 0 0 0 0 0 0 0 0 0 0 0 0 127 0" result="hardAlpha"/>
<feOffset/>
<feGaussianBlur stdDeviation="5"/>
<feComposite in2="hardAlpha" operator="out"/>
<feColorMatrix type="matrix" values="0 0 0 0 1 0 0 0 0 0.533333 0 0 0 0 0 0 0 0 0.5 0"/>
<feBlend mode="normal" in2="BackgroundImageFix" result="effect1_dropShadow"/>
<feBlend mode="normal" in="SourceGraphic" in2="effect1_dropShadow" result="shape"/>
</filter>
<radialGradient id="pill-1-4h" cx="0" cy="0" r="1" gradientUnits="userSpaceOnUse" gradientTransform="translate(229.5 192.5) scale(24.25 16)">
<stop offset="0.466346" stop-color="#FF8800"/>
<stop offset="1" stop-color="#E95D5C" stop-opacity="0.5"/>
</radialGradient>
</defs>
</svg>
