<svg preserveAspectRatio="none" width="100%" height="100%" overflow="visible" style="display: block;" viewBox="0 0 167.19 115.839" fill="none" xmlns="http://www.w3.org/2000/svg">
<g id="Ellipse 13083" filter="url(#filter0_d_0_61)">
<path d="M20.5742 35.2615C19.3811 33.1762 20.0999 30.5081 22.2422 29.4207C33.6148 23.6485 46.1346 20.4389 58.9175 20.0419C73.1518 19.5999 87.277 22.6588 100.053 28.9503C112.829 35.2418 123.865 44.5734 132.193 56.1259C139.672 66.5005 144.76 78.3812 147.118 90.9149C147.562 93.276 145.886 95.4724 143.505 95.798V95.798C141.125 96.1236 138.944 94.4547 138.487 92.0961C136.33 80.9731 131.781 70.4324 125.136 61.2133C117.641 50.8161 107.708 42.4176 96.2095 36.7553C84.7111 31.093 71.9984 28.3399 59.1875 28.7377C47.8283 29.0905 36.6999 31.911 26.5683 36.9829C24.42 38.0583 21.7672 37.3467 20.5742 35.2615V35.2615Z" fill="var(--fill-0, #FF8800)"/>
</g>
<defs>
<filter id="filter0_d_0_61" x="1.90735e-06" y="-4.78087e-07" width="167.19" height="115.839" filterUnits="userSpaceOnUse" color-interpolation-filters="sRGB">
<feFlood flood-opacity="0" result="BackgroundImageFix"/>
<feColorMatrix in="SourceAlpha" type="matrix" values="0 0 0 0 0 0 0 0 0 0 0 0 0 0 0 0 0 0 127 0" result="hardAlpha"/>
<feOffset/>
<feGaussianBlur stdDeviation="10"/>
<feComposite in2="hardAlpha" operator="out"/>
<feColorMatrix type="matrix" values="0 0 0 0 1 0 0 0 0 0.533333 0 0 0 0 0 0 0 0 0.5 0"/>
<feBlend mode="normal" in2="BackgroundImageFix" result="effect1_dropShadow_0_61"/>
<feBlend mode="normal" in="SourceGraphic" in2="effect1_dropShadow_0_61" result="shape"/>
</filter>
</defs>
</svg>
